<?xml version="1.0" encoding="utf-8"?>
<!-- Generator: Adobe Illustrator 22.0.1, SVG Export Plug-In . SVG Version: 6.00 Build 0)  -->
<svg version="1.1" id="Ebene_1" xmlns="http://www.w3.org/2000/svg" xmlns:xlink="http://www.w3.org/1999/xlink" x="0px" y="0px"
	 viewBox="0 0 16 16" style="enable-background:new 0 0 16 16;" xml:space="preserve">
<style type="text/css">
	.st0{fill:#EFEFEF;}
	.st1{opacity:0.65;fill:#FFFFFF;enable-background:new    ;}
	.st2{opacity:0.2;enable-background:new    ;}
	.st3{fill:#999999;}
	.st4{fill:#FFFFFF;}
	.st5{fill:#3A7CAE;}
</style>
<path class="st0" d="M2,0v16h12V4l-4-4H2z"/>
<path class="st1" d="M10,4V0l4,4H10z"/>
<path class="st2" d="M13,5v5L9,5H13z"/>
<path class="st3" d="M2,0v16h12V4l-4-4H2z M3,1h6v4h4v10H3V1z M10,1.4L12.6,4H10C10,4,10,1.4,10,1.4z"/>
<path transform="matrix(1.4274084,0,0,1.4274084,1.7618725,2.4599728)" class="st4" d="M2.3,3.6L6,1.7l4,1.9L6.1,5.7L2.3,3.6z
	 M6,9.5l0.1-3.8L2.3,3.6v5.1l2,0.8H6z M6,9.5l0.1-3.8L10,3.6v4.9l-2.3,1H6z"/>
<g transform="matrix(1.4274084,0,0,1.4274084,1.7618725,2.4599728)">
	<polyline class="st5" points="2.9,3.9 6.1,2.4 9.4,3.9 6.1,5.7 	"/>
	<polygon class="st5" points="6,9.5 6,6.1 2.9,4.5 2.9,8.2 	"/>
	<polygon class="st5" points="6.3,9.5 6.3,6.1 9.4,4.5 9.4,8.2 	"/>
</g>
</svg>
