<?xml version="1.0" encoding="utf-8"?>
<svg version="1.1" xmlns="http://www.w3.org/2000/svg" x="0px" y="0px"
	 viewBox="0 0 16 16" style="enable-background:new 0 0 16 16;" xml:space="preserve">
<path fill="#EFEFEF" d="M2,0v16h12V4l-4-4H2z"/>
<path opacity="0.65" fill="#FFFFFF" d="M10,4V0l4,4H10z"/>
<path opacity="0.2"  d="M13,5v5L9,5H13z"/>
<path fill="#999999" d="M2,0v16h12V4l-4-4H2z M3,1h6v4h4v10H3V1z M10,1.4L12.6,4H10V1.4z"/>
<path transform="matrix(1.4274084,0,0,1.4274084,1.7618725,2.4599728)" fill="#FFFFFF" d="M2.3,3.6L6,1.7l4,1.9L6.1,5.7L2.3,3.6z
	 M6,9.5l0.1-3.8L2.3,3.6v5.1l2,0.8H6z M6,9.5l0.1-3.8L10,3.6v4.9l-2.3,1H6z"/>
<g transform="matrix(1.4274084,0,0,1.4274084,1.7618725,2.4599728)">
	<polyline fill="#3A7CAE" points="2.9,3.9 6.1,2.4 9.4,3.9 6.1,5.7"/>
	<polygon fill="#3A7CAE" points="6,9.5 6,6.1 2.9,4.5 2.9,8.2"/>
	<polygon fill="#3A7CAE" points="6.3,9.5 6.3,6.1 9.4,4.5 9.4,8.2"/>
</g>
</svg>
