<?xml version="1.0" encoding="utf-8"?>
<svg version="1.1" xmlns="http://www.w3.org/2000/svg" x="0px" y="0px"
	 viewBox="0 0 16 16" style="enable-background:new 0 0 16 16;" xml:space="preserve">
<path fill="#FFFFFF" d="M1,2h14v12H1V2z"/>
<path fill="#999999" d="M14,3v10H2V3H14 M15,2H1v12h14V2z"/>
<path fill="#3A7CAE" d="M3,4h2v2H3V4z M3,7h2v2H3V7z M3,10h2v2H3V10z"/>
<polygon fill="#B9B9B9" points="6,4 13,4 13,5 11,5 11,6 6,6 "/>
<polygon fill="#B9B9B9" points="6,7 13,7 13,8 11,8 11,9 6,9 "/>
<polygon fill="#B9B9B9" points="6,10 13,10 13,11 11,11 11,12 6,12 "/>
<path transform="matrix(1.4274084,0,0,1.4274084,1.7618725,2.4599728)" fill="#FFFFFF" d="M2.3,3.6L6,1.7l4,1.9L6.1,5.7L2.3,3.6z
	 M6,9.5l0.1-3.8L2.3,3.6v5.1l2,0.8H6z M6,9.5l0.1-3.8L10,3.6v4.9l-2.3,1H6z"/>
<g transform="matrix(1.4274084,0,0,1.4274084,1.7618725,2.4599728)">
	<polyline fill="#3A7CAE" points="2.9,3.9 6.1,2.4 9.4,3.9 6.1,5.7"/>
	<polygon fill="#3A7CAE" points="6,9.5 6,6.1 2.9,4.5 2.9,8.2"/>
	<polygon fill="#3A7CAE" points="6.3,9.5 6.3,6.1 9.4,4.5 9.4,8.2"/>
</g>
</svg>
