<?xml version="1.0" encoding="utf-8"?>
<!-- Generator: Adobe Illustrator 22.0.1, SVG Export Plug-In . SVG Version: 6.00 Build 0)  -->
<svg version="1.1" id="Layer_1" xmlns="http://www.w3.org/2000/svg" xmlns:xlink="http://www.w3.org/1999/xlink" x="0px" y="0px"
	 viewBox="0 0 16 16" style="enable-background:new 0 0 16 16;" xml:space="preserve">
<style type="text/css">
	.st0{fill:#FFFFFF;}
	.st1{fill:#999999;}
	.st2{fill:#3A7CAE;}
	.st3{fill:#B9B9B9;}
</style>
<path class="st0" d="M1,2h14v12H1V2z"/>
<path class="st1" d="M14,3v10H2V3H14 M15,2H1v12h14V2z"/>
<path class="st2" d="M3,4h2v2H3V4z M3,7h2v2H3V7z M3,10h2v2H3V10z"/>
<polygon class="st3" points="6,4 13,4 13,5 11,5 11,6 6,6 "/>
<polygon class="st3" points="6,7 13,7 13,8 11,8 11,9 6,9 "/>
<polygon class="st3" points="6,10 13,10 13,11 11,11 11,12 6,12 "/>
</svg>
