<?xml version="1.0" encoding="utf-8"?>
<svg version="1.1" xmlns="http://www.w3.org/2000/svg" x="0px" y="0px"
	 viewBox="0 0 16 16" style="enable-background:new 0 0 16 16;" xml:space="preserve">
<g>
	<path fill="#1D2D3E" d="M16,4.7c-0.3-1.4-1.3-0.5-1.3-0.5L12,10.8H6.6L3.3,2.3L0.5,2.1c-1,0.5-0.1,1.5-0.1,1.5l1.9,0.1l3.5,8.5h7.3 l0.5-1.4L16,4.7z"/>
	<path fill="#1D2D3E" d="M6.7,12.6c-0.6,0-1.2,0.5-1.2,1.2c0,0.6,0.5,1.2,1.2,1.2s1.2-0.5,1.2-1.2C7.9,13.2,7.4,12.6,6.7,12.6z"/>
	<path fill="#1D2D3E" d="M12.1,12.6c-0.6,0-1.2,0.5-1.2,1.2c0,0.6,0.5,1.2,1.2,1.2s1.2-0.5,1.2-1.2C13.3,13.2,12.7,12.6,12.1,12.6z"/>
</g>
<g>
	<polyline fill="#3A7CAE" points="5.9,3.4 9.3,1.7 12.8,3.4 9.3,5.3"/>
	<polygon fill="#3A7CAE" points="9.1,5.7 5.9,4 5.9,8 9.1,9.4"/>
	<polygon fill="#3A7CAE" points="9.6,5.7 12.8,4 12.8,8 9.6,9.4"/>
</g>
</svg>
