<?xml version="1.0" encoding="utf-8"?>
<!-- Generator: Adobe Illustrator 18.1.0, SVG Export Plug-In . SVG Version: 6.00 Build 0)  -->
<!DOCTYPE svg PUBLIC "-//W3C//DTD SVG 1.1//EN" "http://www.w3.org/Graphics/SVG/1.1/DTD/svg11.dtd">
<svg version="1.1" id="Ebene_1" xmlns="http://www.w3.org/2000/svg" xmlns:xlink="http://www.w3.org/1999/xlink" x="0px" y="0px"
	 viewBox="0 0 28 28" enable-background="new 0 0 28 28" xml:space="preserve">
<rect x="0" y="0" fill-rule="evenodd" clip-rule="evenodd" fill="#1F3041" width="28" height="28"/>
<path style="fill:#ffffff" d="m 23.647761,11.7 c -0.4,-1.8 -1.7,-0.7 -1.7,-0.7 l -3.4,8.5 h -6.9 L 7.4477612,8.7 l -3.6,-0.2 c -1.3,0.7 -0.1,1.9 -0.1,1.9 l 2.4,0.1 4.4999998,10.9 h 9.3 l 0.7,-1.8 v 0 z m -11.8,10.2 c -0.8,0 -1.5,0.7 -1.5,1.5 0,0.8 0.7,1.5 1.5,1.5 0.8,0 1.5,-0.7 1.5,-1.5 0,-0.8 -0.7,-1.5 -1.5,-1.5 z m 6.8,0 c -0.8,0 -1.5,0.7 -1.5,1.5 0,0.8 0.7,1.5 1.5,1.5 0.8,0 1.5,-0.7 1.5,-1.5 0,-0.8 -0.7,-1.5 -1.5,-1.5 z" />
<g transform="matrix(1.4274084,0,0,1.4274084,1.7618725,2.4599728)">
	<polyline style="fill:#ffffff" points="5.9,3.4 9.3,1.7 12.8,3.4 9.3,5.3  " />
	<polygon style="fill:#ffffff" points="9.1,9.4 9.1,5.7 5.9,4 5.9,8 " />
	<polygon style="fill:#ffffff" points="9.6,9.4 9.6,5.7 12.8,4 12.8,8 " />
</g>
</svg>
