<?xml version="1.0" encoding="utf-8"?>
<svg version="1.1" xmlns="http://www.w3.org/2000/svg" x="0px" y="0px"
	 viewBox="0 0 28 28" style="enable-background:new 0 0 28 28;" xml:space="preserve">
<rect fill="#3A7CAE" width="28" height="28"/>
<g>
	<path fill="#FFFFFF" d="M23.4,11.3c-0.4-1.7-1.6-0.7-1.6-0.7l-3.2,8h-6.5L8.2,8.5L4.8,8.3C3.6,9,4.7,10.1,4.7,10.1L7,10.2l4.2,10.2
		h8.7l0.7-1.7l0,0L23.4,11.3z M12.3,20.8c-0.7,0-1.4,0.7-1.4,1.4s0.7,1.4,1.4,1.4s1.4-0.7,1.4-1.4S13.1,20.8,12.3,20.8z M18.7,20.8
		c-0.7,0-1.4,0.7-1.4,1.4s0.7,1.4,1.4,1.4s1.4-0.7,1.4-1.4S19.4,20.8,18.7,20.8z"/>
</g>
<g transform="matrix(1.4274084,0,0,1.4274084,1.7618725,2.4599728)">
	<polyline fill="#FFFFFF" points="6.2,3.2 9.4,1.6 12.8,3.2 9.4,5"/>
	<polygon fill="#FFFFFF" points="9.3,8.9 9.3,5.4 6.2,3.8 6.2,7.6"/>
	<polygon fill="#FFFFFF" points="9.7,8.9 9.7,5.4 12.8,3.8 12.8,7.6"/>
</g>
</svg>
